<svg width="31" height="24" viewBox="0 0 31 24" fill="none" xmlns="http://www.w3.org/2000/svg">
<path opacity="0.5" d="M8.81788 21.453C13.5874 21.453 17.4539 17.5865 17.4539 12.817C17.4539 8.04744 13.5874 4.18097 8.81788 4.18097C4.04835 4.18097 0.181885 8.04744 0.181885 12.817C0.181885 17.5865 4.04835 21.453 8.81788 21.453Z" fill="#FC2121"/>
<path d="M16.3939 22.04V18.601C16.3968 18.1785 16.5666 17.7744 16.8664 17.4767C17.1661 17.179 17.5714 17.012 17.9939 17.012H21.2259C21.6498 17.0116 22.0566 17.1787 22.3579 17.477C22.5064 17.6241 22.6243 17.7991 22.7048 17.9921C22.7853 18.185 22.8268 18.3919 22.8269 18.601V22.039C22.8255 22.2199 22.8602 22.3993 22.9289 22.5667C22.9976 22.734 23.0989 22.8861 23.2269 23.014C23.4874 23.2715 23.8395 23.4154 24.2059 23.414H26.4109C27.4394 23.4172 28.4274 23.0131 29.1589 22.29C29.5194 21.9336 29.8058 21.5093 30.0013 21.0415C30.1968 20.5738 30.2976 20.0719 30.2979 19.565V9.76496C30.2975 9.35634 30.207 8.95283 30.033 8.58313C29.8589 8.21342 29.6055 7.88662 29.2909 7.62596L21.7909 1.68896C21.1571 1.18355 20.3669 0.915009 19.5565 0.929612C18.746 0.944215 17.966 1.24105 17.3509 1.76896L10.0199 7.63596C9.69055 7.88879 9.422 8.21213 9.23391 8.58225C9.04582 8.95238 8.94296 9.35991 8.93286 9.77496V19.561C8.9347 20.0694 9.03667 20.5726 9.23295 21.0416C9.42923 21.5107 9.71599 21.9365 10.0768 22.2948C10.4377 22.653 10.8656 22.9367 11.336 23.1296C11.8065 23.3225 12.3104 23.4208 12.8189 23.419H14.9739C15.3391 23.42 15.69 23.2768 15.9502 23.0204C16.2103 22.764 16.3586 22.4152 16.3629 22.05L16.3939 22.04Z" fill="#FC2121"/>
</svg>
