<svg width="16" height="16" viewBox="0 0 16 16" fill="none" xmlns="http://www.w3.org/2000/svg">
<path d="M7.12425 0.529822C7.20804 0.369974 7.33375 0.236139 7.48781 0.142774C7.64186 0.0494087 7.81841 6.10352e-05 7.99837 6.10352e-05C8.17834 6.10352e-05 8.35489 0.0494087 8.50894 0.142774C8.663 0.236139 8.78871 0.369974 8.8725 0.529822L10.7136 4.04597C10.7817 4.17618 10.8779 4.28955 10.9951 4.37785C11.1123 4.46615 11.2476 4.52717 11.3912 4.55649L15.2087 5.33268C15.3789 5.36735 15.537 5.44645 15.6671 5.56201C15.7971 5.67757 15.8945 5.8255 15.9494 5.99088C16.0043 6.15626 16.0147 6.33325 15.9797 6.50399C15.9447 6.67473 15.8655 6.83318 15.75 6.96337L13.0357 10.0176C12.943 10.1222 12.8733 10.2454 12.8315 10.379C12.7896 10.5127 12.7764 10.6537 12.7928 10.7928L13.2748 14.8918C13.2957 15.069 13.2687 15.2486 13.1964 15.4116C13.1242 15.5746 13.0094 15.715 12.8643 15.8181C12.7192 15.9211 12.549 15.9829 12.3718 15.997C12.1946 16.011 12.0169 15.9768 11.8574 15.898L8.43396 14.2048C8.29828 14.1378 8.14909 14.103 7.99788 14.103C7.84667 14.103 7.69748 14.1378 7.5618 14.2048L4.13443 15.898C3.97496 15.9768 3.79724 16.011 3.62002 15.997C3.44279 15.9829 3.27264 15.9211 3.1275 15.8181C2.98236 15.715 2.86762 15.5746 2.79538 15.4116C2.72314 15.2486 2.69608 15.069 2.71705 14.8918L3.19906 10.7928C3.21543 10.6537 3.20224 10.5127 3.16036 10.379C3.11847 10.2454 3.04885 10.1222 2.95608 10.0176L0.249737 6.96238C0.134508 6.83238 0.0554031 6.67422 0.0203728 6.50381C-0.0146574 6.33341 -0.00437924 6.15674 0.0501745 5.99158C0.104728 5.82643 0.201636 5.67859 0.331157 5.56293C0.460679 5.44726 0.618253 5.36786 0.788043 5.33268L4.60162 4.55649C4.74522 4.52717 4.88052 4.46615 4.99772 4.37785C5.11491 4.28955 5.21106 4.17618 5.27919 4.04597L7.12425 0.529822Z" fill="#FFD500"/>
</svg>
